<?xml version="1.0" ?>
<!DOCTYPE svg  PUBLIC '-//W3C//DTD SVG 1.1//EN'  'http://www.w3.org/Graphics/SVG/1.1/DTD/svg11.dtd'>
<!-- Uploaded to: SVG Repo, www.svgrepo.com, Generator: SVG Repo Mixer Tools -->
<svg fill="#000000" width="800px" height="800px" viewBox="0 0 64 64" style="fill-rule:evenodd;clip-rule:evenodd;stroke-linejoin:round;stroke-miterlimit:2;" version="1.1" xml:space="preserve" xmlns="http://www.w3.org/2000/svg" xmlns:serif="http://www.serif.com/" xmlns:xlink="http://www.w3.org/1999/xlink">
<g id="Expanded">
<path d="M24.32,51l-7.07,0c-0.552,-0 -1,0.448 -1,1c-0,0.552 0.448,1 1,1l7.281,0c0.82,3.439 3.916,6 7.605,6c3.69,0 6.786,-2.561 7.606,-6l7.258,0c0.552,-0 1,-0.448 1,-1c-0,-0.552 -0.448,-1 -1,-1l-7.048,0c-0.023,-1.018 -0.241,-1.988 -0.618,-2.874l1.691,-1.692c0.391,-0.39 0.391,-1.024 0,-1.414c-0.39,-0.39 -1.024,-0.39 -1.414,0l-7.475,7.475c0,-0 -2.02,-2.02 -2.02,-2.02c-0.39,-0.391 -1.024,-0.391 -1.414,-0c-0.39,0.39 -0.39,1.024 -0,1.414l2.727,2.727c0.391,0.391 1.024,0.391 1.414,0l4.92,-4.919c0.125,0.474 0.192,0.972 0.192,1.485c-0,3.211 -2.607,5.818 -5.819,5.818c-3.211,0 -5.818,-2.607 -5.818,-5.818c0,-3.211 2.607,-5.818 5.818,-5.818c0.552,-0 1,-0.448 1,-1c0,-0.552 -0.448,-1 -1,-1c-4.254,-0 -7.719,3.405 -7.816,7.636Zm27.68,2l8,0c0.552,0 1,-0.448 1,-1l0,-7c-0,-0.552 -0.448,-1 -1,-1c-0.552,0 -1,0.448 -1,1l0,6c0,0 -7,0 -7,0c-0.552,-0 -1,0.448 -1,1c-0,0.552 0.448,1 1,1Zm-40,-2l-7,0c0,-0 0,-6 0,-6c0,-0.552 -0.448,-1 -1,-1c-0.552,-0 -1,0.448 -1,1l0,7c0,0.552 0.448,1 1,1l8,0c0.552,-0 1,-0.448 1,-1c-0,-0.552 -0.448,-1 -1,-1Zm-2,-2l-3,0l0,-3l3,0l0,3Zm44,0l3,0l0,-3l-3,0l0,3Zm-23,-27.462c-1.667,0.126 -3.267,0.556 -4.761,1.169c-0.043,-0.047 -0.091,-0.09 -0.143,-0.129c-0.504,-0.374 -0.838,-0.962 -1.078,-1.518c-0.403,-0.933 -0.527,-1.816 -0.527,-1.816c-0.076,-0.547 -0.581,-0.929 -1.128,-0.853c-0.547,0.075 -0.929,0.58 -0.854,1.127c0,0 0.394,2.549 1.791,4.11c-0.647,0.349 -1.268,0.727 -1.858,1.12c-0.791,0.526 -1.527,1.08 -2.197,1.628c-0.527,-0.323 -0.955,-0.85 -1.301,-1.367c-0.652,-0.973 -1.001,-1.96 -1.001,-1.96c-0.183,-0.52 -0.754,-0.794 -1.275,-0.611c-0.52,0.183 -0.794,0.754 -0.611,1.275c-0,-0 0.425,1.214 1.224,2.408c0.39,0.583 0.869,1.154 1.422,1.603c-0.99,0.923 -1.745,1.744 -2.21,2.276l-12.493,0c-0.552,0 -1,0.448 -1,1c0,0.552 0.448,1 1,1l12.07,-0c0.38,0.465 1.743,2.073 3.784,3.8c2.95,2.495 7.308,5.2 12.146,5.2c3.571,0 6.881,-1.465 9.558,-3.248c2.872,-1.911 5.007,-4.173 5.949,-5.252l12.493,0c0.552,-0 1,-0.448 1,-1c-0,-0.552 -0.448,-1 -1,-1l-12.07,0c-0.303,-0.371 -1.233,-1.47 -2.633,-2.776c0.553,-0.449 1.032,-1.02 1.422,-1.603c0.799,-1.194 1.224,-2.408 1.224,-2.408c0.183,-0.521 -0.091,-1.092 -0.611,-1.275c-0.521,-0.183 -1.092,0.091 -1.275,0.611c-0,0 -0.349,0.987 -1.001,1.96c-0.346,0.517 -0.774,1.044 -1.301,1.367c-0.67,-0.548 -1.406,-1.102 -2.197,-1.628c-0.59,-0.393 -1.211,-0.771 -1.858,-1.12c1.397,-1.561 1.791,-4.11 1.791,-4.11c0.075,-0.547 -0.307,-1.052 -0.854,-1.127c-0.547,-0.076 -1.052,0.306 -1.128,0.853c0,0 -0.124,0.883 -0.527,1.816c-0.24,0.556 -0.574,1.144 -1.078,1.518c-0.052,0.039 -0.1,0.082 -0.143,0.129c-1.494,-0.613 -3.094,-1.043 -4.761,-1.169l0,-3.538c0,-0.552 -0.448,-1 -1,-1c-0.552,-0 -1,0.448 -1,1l0,3.538Zm1,1.962c3.162,0 6.079,1.335 8.45,2.912c2.637,1.756 4.607,3.828 5.494,4.838c-0.887,1.01 -2.857,3.082 -5.494,4.838c-2.371,1.577 -5.288,2.912 -8.45,2.912c-4.335,0 -8.211,-2.492 -10.854,-4.727c-1.428,-1.208 -2.499,-2.351 -3.089,-3.023c0.886,-1.01 2.856,-3.082 5.493,-4.838c2.371,-1.577 5.288,-2.912 8.45,-2.912Zm0,2.881c-2.484,0 -4.5,2.017 -4.5,4.5c0,2.484 2.016,4.5 4.5,4.5c2.484,0 4.5,-2.016 4.5,-4.5c0,-2.483 -2.016,-4.5 -4.5,-4.5Zm0,2c1.38,0 2.5,1.12 2.5,2.5c0,1.38 -1.12,2.5 -2.5,2.5c-1.38,0 -2.5,-1.12 -2.5,-2.5c0,-1.38 1.12,-2.5 2.5,-2.5Zm-20,-17.381l-8,0c-0.552,0 -1,0.448 -1,1l0,7c0,0.552 0.448,1 1,1c0.552,-0 1,-0.448 1,-1l0,-6c-0,0 7,0 7,0c0.552,-0 1,-0.448 1,-1c-0,-0.552 -0.448,-1 -1,-1Zm40,2l7,0c-0,0 0,6 0,6c-0,0.552 0.448,1 1,1c0.552,0 1,-0.448 1,-1l0,-7c0,-0.552 -0.448,-1 -1,-1l-8,0c-0.552,-0 -1,0.448 -1,1c-0,0.552 0.448,1 1,1Zm-42,2l-3,0l0,3l3,0l0,-3Zm44,0l3,0l0,3l-3,0l0,-3Zm-37,-2l30,0c0.552,-0 1,-0.448 1,-1c-0,-0.552 -0.448,-1 -1,-1l-30,0c-0.552,-0 -1,0.448 -1,1c-0,0.552 0.448,1 1,1Z"/>
</g>
</svg>