<svg xmlns="http://www.w3.org/2000/svg" width="1024" height="1024" viewBox="0 0 1024 1024" version="1.1">
	<path d="M 239.500 38.930 C 229.748 41.289, 220.112 50.368, 217.377 59.774 C 215.037 67.823, 215.958 78.314, 219.589 84.986 C 225.017 94.958, 238.454 102.621, 248.984 101.750 C 252.018 101.499, 254.950 101.141, 255.500 100.954 C 256.050 100.767, 271.688 115.908, 290.250 134.602 L 324 168.591 324 223.295 L 324 278 292.719 278 L 261.437 278 240.524 257 L 219.610 236 159.770 236 L 99.929 236 98.013 231.530 C 95.428 225.499, 88.924 218.654, 83.239 215.982 C 76.636 212.879, 64.410 212.842, 57.468 215.906 C 51.198 218.673, 45.565 224.072, 42.242 230.500 C 38.580 237.585, 38.449 249.294, 41.953 256.457 C 47.503 267.800, 55.944 273.869, 67.783 275.028 C 74.243 275.660, 76.226 275.463, 80.735 273.737 C 87.383 271.193, 93.908 265.535, 97.072 259.570 L 99.497 255 157.006 255 L 214.515 255 238.758 279.258 L 263 303.515 263 333.267 L 263 363.019 213.250 362.759 L 163.500 362.500 162.418 359.154 C 160.775 354.071, 153.704 346.530, 147.841 343.608 C 143.348 341.369, 141.314 341, 133.463 341 C 125.265 341, 123.687 341.316, 118.196 344.060 C 107.940 349.185, 102.880 357.252, 102.209 369.548 C 101.662 379.583, 103.920 385.550, 110.805 392.259 C 117.475 398.759, 122.804 401.225, 131.358 401.768 C 144.272 402.588, 153.098 398.226, 160.113 387.557 L 164.225 381.304 212.862 381.507 L 261.500 381.711 262.234 459.605 C 262.638 502.447, 262.863 562.700, 262.734 593.500 L 262.500 649.500 213.301 649.759 L 164.102 650.019 162.164 645.637 C 159.646 639.946, 153.841 633.580, 148.084 630.195 C 143.973 627.778, 142.520 627.500, 134 627.505 C 125.648 627.509, 123.889 627.831, 119.442 630.174 C 113.212 633.456, 107.651 639.057, 104.720 645 C 101.719 651.084, 101.737 663.402, 104.756 670 C 107.237 675.422, 113.682 682.140, 119.922 685.809 C 123.993 688.202, 125.461 688.489, 133.176 688.403 C 140.496 688.322, 142.733 687.876, 147.483 685.552 C 152.939 682.883, 159.719 675.877, 162.292 670.250 L 163.321 668 213.161 668 L 263 668 263 698.758 L 263 729.516 239.231 753.269 L 215.462 777.023 157.981 776.971 L 100.500 776.919 98.091 771.379 C 92.880 759.396, 83.087 753.424, 69 753.639 C 56.522 753.830, 46.193 760.129, 41.353 770.500 C 37.890 777.920, 37.995 790.591, 41.578 797.781 C 44.796 804.238, 52.543 811.316, 58.684 813.408 C 65.895 815.865, 77.375 815.504, 83.556 812.626 C 88.730 810.217, 94.837 804.072, 97.873 798.220 L 99.575 794.939 160.421 794.985 L 221.268 795.030 241.436 775.015 C 252.528 764.007, 261.918 755, 262.302 755 C 262.686 755, 263 756.350, 263 758 L 263 761 293.500 761 L 324 761 324 814.827 L 324 868.654 292.949 900.577 C 265.652 928.641, 261.572 932.462, 259.199 932.186 C 257.715 932.013, 252.450 931.791, 247.500 931.693 C 237.032 931.485, 232.725 933.190, 225.872 940.251 C 213.407 953.095, 213.329 972.415, 225.690 985.394 C 231.401 991.392, 236.907 993.481, 247 993.479 C 257.382 993.477, 262.002 991.961, 267.737 986.675 C 278.465 976.786, 281.372 963.951, 275.839 950.909 L 273.891 946.318 307.288 912.676 L 340.685 879.034 341.339 863.267 C 341.699 854.595, 341.995 828.038, 341.997 804.250 L 342 761 381.500 761 L 421 761 421 801.293 L 421 841.585 416.709 842.733 C 411.158 844.218, 404.214 850.379, 400.466 857.145 C 397.762 862.027, 397.500 863.339, 397.500 872 C 397.500 882.983, 398.835 886.592, 405.388 893.325 C 420.594 908.951, 447.079 904.846, 456.599 885.388 C 459.010 880.460, 459.201 879.192, 458.804 870.746 C 458.485 863.939, 457.816 860.433, 456.269 857.455 C 453.760 852.624, 446.767 845.960, 442.250 844.098 L 439 842.757 439 801.879 L 439 761 497.250 760.991 C 529.288 760.987, 564.837 760.691, 576.250 760.334 L 597 759.686 597 801.379 L 597 843.071 592.580 844.966 C 582.049 849.480, 575.650 859.265, 575.553 871 C 575.465 881.757, 577.408 886.541, 584.931 894.095 C 590.524 899.709, 592.318 900.885, 597 902.005 C 607.452 904.504, 615.229 903.362, 623.274 898.148 C 627.538 895.385, 632.992 888.399, 635.391 882.628 C 640.792 869.634, 633.077 850.813, 619.910 844.863 L 615 842.643 615 801.322 L 615 760 654.500 760 L 694 760 694 819.809 L 694 879.617 728.111 913.644 L 762.222 947.671 760.778 950.585 C 758.470 955.244, 756.680 964.483, 757.377 968.137 C 758.474 973.891, 762.649 981.649, 766.976 985.976 C 780.105 999.105, 801.861 997.229, 813.844 981.935 C 817.608 977.132, 820.279 967.174, 819.650 960.292 C 818.193 944.340, 804.672 931.833, 788.938 931.883 C 785.148 931.895, 781.113 932.404, 779.971 933.015 C 778.829 933.627, 777.247 933.986, 776.455 933.813 C 775.662 933.641, 760.611 919.116, 743.007 901.536 L 711 869.572 711 814.786 L 711 760 741.025 760 L 771.050 760 772.039 757.397 L 773.029 754.793 777.236 758.594 C 779.549 760.684, 788.811 769.737, 797.818 778.712 L 814.193 795.030 874.239 794.984 L 934.285 794.939 936.238 798.219 C 939.168 803.138, 945.989 809.888, 950.500 812.333 C 956.190 815.416, 972.362 815.359, 979 812.232 C 984.465 809.657, 991.011 803.083, 994.166 797 C 997.451 790.667, 997.489 778.507, 994.245 771.924 C 990.714 764.759, 985.514 759.413, 978.821 756.068 C 973.683 753.501, 971.511 753, 965.518 753 C 961.565 753, 956.245 753.720, 953.643 754.606 C 947.555 756.680, 938.857 764.640, 935.654 771.066 L 933.164 776.065 876.392 776.016 L 819.621 775.968 795.810 752.270 L 772 728.572 772 698.286 L 772 668 823.348 668 L 874.696 668 876.530 672.065 C 878.957 677.448, 888.002 685.618, 893.304 687.218 C 895.612 687.915, 900.986 688.415, 905.247 688.330 C 912.113 688.193, 913.717 687.771, 919.355 684.618 C 929.221 679.101, 934.974 670.115, 935.758 659 C 936.144 653.515, 935.801 651.563, 933.559 646.500 C 930.598 639.810, 924.376 632.805, 918.868 629.957 C 910.792 625.782, 895.630 626.531, 888 631.483 C 882.351 635.149, 877.185 640.949, 875.395 645.636 L 873.728 650 822.978 650 L 772.227 650 772.459 515.831 L 772.690 381.663 822.827 381.463 L 872.964 381.263 875.424 385.461 C 878.497 390.703, 887.136 398.104, 892.770 400.320 C 901.721 403.841, 915.696 401.520, 922.954 395.307 C 928.110 390.894, 932.737 383.714, 934.637 377.176 C 936.061 372.280, 936.053 371.244, 934.552 365.268 C 932.446 356.885, 930.637 353.456, 925.941 348.944 C 919.448 342.705, 915.892 341.499, 904 341.505 C 894.938 341.509, 892.903 341.828, 889.137 343.833 C 883.546 346.810, 876.609 353.948, 874.366 359.032 L 872.615 363 822.308 363 L 772 363 772 335.139 L 772 307.279 798.250 281.156 L 824.500 255.033 880.250 255.016 C 916.675 255.006, 936 255.346, 936 255.998 C 936 258.327, 943.437 267.071, 947.785 269.854 C 953.959 273.806, 956.778 274.812, 963.758 275.557 C 975.784 276.839, 991.235 267.001, 995.260 255.500 C 1000.533 240.432, 993.434 223.137, 979.214 216.407 C 974.486 214.169, 972.119 213.702, 965.493 213.701 C 958.733 213.700, 956.588 214.140, 951.714 216.527 C 945.483 219.578, 937.727 227.616, 935.868 232.950 L 934.804 236 876.057 236 L 817.309 236 795.405 258.059 C 779.953 273.619, 773.396 279.614, 773.148 278.408 C 772.820 276.820, 770.581 276.749, 741.898 277.406 L 711 278.115 711 223.100 L 711 168.085 721.312 157.793 C 726.984 152.132, 742.028 136.835, 754.744 123.800 L 777.865 100.101 781.176 101.050 C 790.739 103.793, 801.649 100.481, 809.755 92.376 C 817.220 84.911, 818.956 80.594, 818.956 69.500 C 818.956 59.103, 817.392 54.654, 811.413 48.035 C 805.675 41.684, 799.099 38.743, 789.500 38.236 C 780.494 37.760, 774.907 39.529, 767.901 45.078 C 757.103 53.631, 753.601 75.052, 761.186 86.154 C 762.184 87.614, 763 89.215, 763 89.712 C 763 90.209, 758.670 94.864, 753.378 100.058 C 748.086 105.251, 732.336 121.131, 718.378 135.348 L 693 161.195 693 219.598 L 693 278 654 278 L 615 278 615.003 233.750 L 615.006 189.500 619.731 187 C 626.861 183.228, 633.429 174.452, 635.526 165.896 C 637.522 157.751, 637.047 154.046, 632.887 145.291 C 627.619 134.203, 617.856 128.451, 604.517 128.574 C 595.044 128.662, 589.256 130.979, 583.077 137.159 C 576.491 143.744, 574.492 148.995, 574.547 159.566 C 574.589 167.610, 574.904 169.161, 577.352 173.337 C 581.143 179.807, 585.906 184.332, 591.876 187.133 L 596.918 189.500 596.959 233.750 L 597 278 518 278 L 439 278 439 233.652 L 439 189.304 442.961 187.518 C 449.044 184.775, 457.201 176.226, 459.255 170.442 C 461.779 163.334, 461.628 150.929, 458.950 145.397 C 456.389 140.107, 449.310 133.495, 443.176 130.664 C 436.728 127.687, 423.496 127.675, 417 130.639 C 411.077 133.341, 404.701 139.869, 401.407 146.601 C 399.020 151.479, 398.797 152.866, 399.203 160.265 C 399.868 172.387, 404.139 179.276, 415.493 186.539 L 421 190.061 421 234.031 L 421 278 381 278 L 341 278 341 218.485 L 341 158.970 306.093 124.393 L 271.186 89.815 273.490 86.419 C 276.739 81.631, 278.337 73.959, 277.761 65.910 C 276.433 47.346, 258.113 34.428, 239.500 38.930 M 239.641 57.898 C 233.497 61.948, 231.234 69.685, 234.402 75.810 C 236.072 79.039, 242.701 83, 246.436 83 C 252.211 83, 258.633 77.560, 259.997 71.512 C 261.046 66.864, 259.227 62.210, 254.960 58.620 C 251.078 55.353, 244.007 55.020, 239.641 57.898 M 781.190 58.026 C 775.576 61.448, 773.372 69.952, 776.521 76.040 C 778.172 79.232, 784.541 83.013, 788.210 82.978 C 792.306 82.939, 798.791 79.305, 800.434 76.128 C 802.663 71.817, 802.433 65.416, 799.921 61.889 C 795.694 55.953, 787.397 54.241, 781.190 58.026 M 423.367 147.918 C 418.848 150.674, 417 153.837, 417 158.818 C 417 164.192, 419.697 168.295, 425.012 171.006 C 428.201 172.633, 429.671 172.814, 433.652 172.070 C 439.040 171.064, 442.298 167.906, 444.123 161.920 C 445.054 158.866, 444.899 157.723, 443.067 154.131 C 439.193 146.538, 430.254 143.719, 423.367 147.918 M 598.304 147.956 C 592.115 151.730, 589.614 159.369, 592.640 165.255 C 594.482 168.838, 601.131 173, 605.012 173 C 609.362 173, 614.311 170.691, 616.832 167.486 C 619.413 164.206, 619.748 157.347, 617.537 153.071 C 614.253 146.721, 604.558 144.143, 598.304 147.956 M 61.357 235.312 C 58.347 238.071, 57.662 239.464, 57.260 243.650 C 56.822 248.203, 57.074 249.015, 59.938 252.277 C 64.414 257.375, 68.922 258.684, 74.571 256.526 C 82.395 253.538, 85.517 246.832, 82.544 239.401 C 80.496 234.284, 76.651 232, 70.081 232 C 65.690 232, 64.462 232.466, 61.357 235.312 M 958.655 233.133 C 956.196 234.563, 953.049 241.676, 953.022 245.868 C 952.993 250.308, 958.994 256.533, 964.256 257.520 C 971.452 258.870, 980 251.801, 980 244.500 C 980 240.710, 976.447 235.039, 972.970 233.279 C 969.955 231.754, 961.182 231.664, 958.655 233.133 M 279.991 513.750 C 279.987 634.063, 279.699 734.862, 279.352 737.750 L 278.721 743 517.292 743 L 755.862 743 755.531 532.250 C 755.349 416.337, 755.155 315.538, 755.100 308.250 L 755 295 517.500 295 L 280 295 279.991 513.750 M 658.983 321.031 C 657.397 323.995, 657.966 380.366, 659.599 381.999 C 660.898 383.298, 719.354 382.982, 720.668 381.669 C 721.738 380.599, 722.364 341.076, 721.483 330.189 C 720.895 322.921, 720.540 321.776, 718.655 321.066 C 717.470 320.620, 703.829 319.924, 688.342 319.520 L 660.185 318.786 658.983 321.031 M 315.322 321.230 C 314.010 323.258, 313.692 377.555, 314.978 379.958 C 316.042 381.947, 316.882 382, 347.035 382 L 378 382 378 352.571 C 378 327.570, 377.771 322.914, 376.480 321.622 C 375.191 320.334, 370.468 320.091, 345.551 320.031 C 322.806 319.975, 315.957 320.247, 315.322 321.230 M 398.688 324.792 C 397.198 326.438, 397 329.603, 397 351.715 L 397 376.772 400.250 378.224 C 404.806 380.258, 445.326 379.216, 448.766 376.976 L 451.032 375.500 450.766 350.067 L 450.500 324.633 446.500 324.213 C 444.300 323.982, 433.022 323.598, 421.438 323.360 C 401.840 322.956, 400.259 323.056, 398.688 324.792 M 483.076 323.772 C 470.811 323.944, 463.163 324.450, 462.326 325.145 C 460.864 326.358, 460.441 355.166, 461.656 370.770 L 462.299 379.040 486.546 378.964 C 508.525 378.895, 510.943 378.720, 512.413 377.096 C 513.835 375.525, 514.002 372.169, 513.767 349.902 L 513.500 324.500 508 324 C 504.975 323.725, 493.759 323.622, 483.076 323.772 M 543.572 323.775 C 534.262 323.926, 526.131 324.476, 525.504 324.997 C 524.266 326.024, 523.486 371.053, 524.614 376.402 L 525.226 379.304 549.863 378.619 C 571.346 378.021, 574.663 377.717, 575.777 376.238 C 576.763 374.930, 576.928 369.632, 576.502 353.022 C 575.849 327.561, 575.445 324.041, 573.162 323.889 C 568.312 323.565, 558.745 323.529, 543.572 323.775 M 588.484 326.018 C 586.901 327.767, 586.803 329.785, 587.408 348.221 C 587.773 359.374, 588.333 370.863, 588.651 373.750 L 589.230 379 605.365 378.913 C 627.657 378.793, 638.830 377.853, 640.105 375.992 C 641.249 374.320, 640.707 328.684, 639.507 325.760 C 638.857 324.173, 636.663 324.024, 614.509 324.057 C 591.842 324.092, 590.109 324.222, 588.484 326.018 M 331.417 334.917 C 331.188 335.146, 331 342.458, 331 351.167 L 331 367 339.349 367 C 343.941 367, 351.141 367.291, 355.349 367.647 L 363 368.293 363 351.397 L 363 334.500 347.417 334.500 C 338.846 334.500, 331.646 334.688, 331.417 334.917 M 673.903 338 C 673.848 339.925, 673.735 347.274, 673.652 354.331 L 673.500 367.161 689.750 367.508 L 706 367.855 706.001 351.177 L 706.001 334.500 690.001 334.500 L 674.002 334.500 673.903 338 M 539 351.086 L 539 363 550.032 363 L 561.063 363 560.782 351.250 L 560.500 339.500 549.750 339.336 L 539 339.172 539 351.086 M 412.568 351.250 C 412.940 357.438, 413.557 362.845, 413.939 363.267 C 414.321 363.689, 419.216 363.734, 424.817 363.367 L 435 362.699 435 351.350 L 435 340 423.446 340 L 411.893 340 412.568 351.250 M 477 351.434 L 477 362.867 487.250 363.186 C 492.887 363.362, 497.781 363.279, 498.123 363.003 C 498.466 362.726, 498.521 357.438, 498.245 351.250 L 497.743 340 487.372 340 L 477 340 477 351.434 M 603 346.860 C 603 350.634, 603.286 355.809, 603.636 358.360 L 604.272 363 615.281 363 L 626.289 363 625.652 356.250 C 625.301 352.538, 625.011 347.363, 625.007 344.750 L 625 340 614 340 L 603 340 603 346.860 M 128.396 359.429 C 123.441 361.587, 121 365.887, 121 372.461 C 121 377.550, 121.320 378.405, 124.218 381.052 C 125.988 382.669, 128.956 384.276, 130.814 384.625 C 142.046 386.732, 151.779 374.359, 146.062 365.241 C 142.025 358.803, 135.083 356.519, 128.396 359.429 M 898.415 359.375 C 892.075 362.231, 888.568 370.128, 891.015 376.037 C 892.491 379.600, 897.151 383.749, 900.668 384.631 C 904.290 385.541, 910.881 383.273, 914.167 379.987 C 916.497 377.657, 916.999 376.296, 916.996 372.327 C 916.992 367.125, 914.492 361.869, 911.179 360.096 C 907.754 358.263, 901.650 357.918, 898.415 359.375 M 315.619 397.282 C 313.850 398.583, 313.765 400.028, 314.178 421.807 C 314.419 434.536, 314.944 445.277, 315.343 445.676 C 316.182 446.515, 376.001 446.118, 377.382 445.264 C 378.337 444.673, 377.360 398.028, 376.372 397.037 C 376.077 396.742, 362.711 396.365, 346.668 396.200 C 323.065 395.958, 317.141 396.164, 315.619 397.282 M 659.332 396.774 C 657.889 397.691, 656.528 437.777, 657.762 443 L 658.589 446.500 678.045 446.402 C 716.764 446.208, 718.741 446.116, 720.429 444.429 C 721.704 443.154, 721.981 440.466, 721.900 430.179 C 721.738 409.661, 720.725 398.068, 719 396.978 C 717.234 395.863, 661.067 395.670, 659.332 396.774 M 396.667 400.667 C 395.817 401.517, 395.812 423.500, 396.658 436.287 L 397.306 446.073 405.766 445.787 L 414.226 445.500 414.064 432.250 L 413.902 419 430.882 419 L 447.863 419 448.181 409.498 L 448.500 399.996 422.917 399.998 C 408.846 399.999, 397.033 400.300, 396.667 400.667 M 460.642 403.750 C 460.301 405.813, 460.017 410.087, 460.011 413.250 L 460 419 485.441 419 C 500.996 419, 511.118 418.619, 511.488 418.019 C 511.822 417.479, 512.365 413.204, 512.696 408.519 L 513.297 400 487.279 400 L 461.262 400 460.642 403.750 M 524 409.517 L 524 419.034 549.750 418.767 L 575.500 418.500 575.788 409.250 L 576.075 400 550.038 400 L 524 400 524 409.517 M 588.607 401.582 C 588.273 402.452, 588 408.091, 588 414.113 C 588 423.183, 588.272 425.167, 589.585 425.671 C 592.102 426.637, 602.053 423.826, 605.053 421.302 C 607.255 419.449, 608.980 419, 613.894 419 L 620 419 620 433.052 L 620 447.104 628.750 446.408 C 633.563 446.025, 637.831 445.214, 638.235 444.606 C 638.639 443.998, 638.976 433.712, 638.985 421.750 L 639 400 614.107 400 C 592.330 400, 589.138 400.198, 588.607 401.582 M 329 422.151 L 329 433.302 338.750 432.656 C 344.113 432.301, 351.538 432.008, 355.250 432.005 L 362 432 362 421.500 L 362 411 345.500 411 L 329 411 329 422.151 M 672 422.153 L 672 433.306 683.250 432.657 C 689.438 432.301, 696.862 432.007, 699.750 432.005 L 705 432 705 421.500 L 705 411 688.500 411 L 672 411 672 422.153 M 516 442 L 435.500 442.500 435.244 519.250 L 434.988 596 514.871 596 C 580.138 596, 594.957 595.757, 595.859 594.669 C 596.643 593.726, 596.980 571.300, 597.019 517.540 C 597.049 475.850, 596.945 441.686, 596.787 441.620 C 596.629 441.554, 560.275 441.725, 516 442 M 316.250 457.033 C 314.008 457.932, 314 458.019, 314 480.903 C 314 493.535, 314.421 504.977, 314.935 506.330 L 315.871 508.790 344.546 508.938 C 368.489 509.061, 373.598 508.838, 375.503 507.590 C 377.755 506.114, 377.787 505.811, 377.897 484.797 C 377.958 473.084, 378.197 462.528, 378.429 461.340 C 378.738 459.757, 378.269 459.040, 376.675 458.660 C 375.479 458.375, 363.250 457.865, 349.500 457.528 C 335.750 457.190, 323.150 456.738, 321.500 456.523 C 319.850 456.307, 317.488 456.537, 316.250 457.033 M 657.724 457.609 C 657.326 458.008, 657 469.003, 657 482.044 C 657 508.044, 656.909 507.649, 663.106 508.437 C 667.969 509.056, 714.029 509.154, 716.927 508.551 C 718.261 508.274, 719.765 507.635, 720.269 507.131 C 720.773 506.627, 721.392 496.034, 721.646 483.590 C 722.012 465.656, 721.833 460.691, 720.783 459.640 C 719.774 458.631, 712.180 458.144, 688.953 457.600 C 672.175 457.207, 658.122 457.211, 657.724 457.609 M 453.049 459.750 C 453.075 460.163, 452.963 487.050, 452.799 519.500 L 452.500 578.500 515.750 578.757 L 579 579.015 579 519.007 L 579 459 516 459 C 481.350 459, 453.022 459.337, 453.049 459.750 M 397.232 483.750 L 397.500 507.500 405.674 507.500 L 413.849 507.500 414.384 483.750 L 414.919 460 405.941 460 L 396.964 460 397.232 483.750 M 620.449 461.273 C 620.180 461.973, 620.082 472.660, 620.230 485.023 L 620.500 507.500 628.766 507.791 C 634.825 508.004, 637.154 507.737, 637.492 506.791 C 637.745 506.081, 638.075 495.262, 638.226 482.749 L 638.500 459.998 629.719 459.999 C 623.533 460, 620.793 460.376, 620.449 461.273 M 329.744 475.750 C 329.483 477.813, 329.321 482.650, 329.385 486.500 L 329.500 493.500 336 493.828 C 339.575 494.009, 347.113 493.853, 352.750 493.482 L 363 492.808 363 482.404 L 363 472 346.609 472 L 330.219 472 329.744 475.750 M 672.986 480.750 C 672.979 485.563, 672.701 490.512, 672.370 491.750 L 671.767 494 688.883 494 L 706 494 706 483 L 706 472 689.500 472 L 673 472 672.986 480.750 M 464.750 479.549 C 463.222 481.147, 464.001 484, 466 484.125 C 467.100 484.194, 468.450 484.363, 469 484.500 C 469.550 484.637, 470.391 484.806, 470.868 484.875 C 471.346 484.944, 472.004 486.913, 472.332 489.250 C 472.924 493.483, 471.308 547.585, 470.468 551.620 C 470.138 553.207, 469.018 553.901, 466.014 554.382 C 461.673 555.076, 461.126 555.983, 463.571 558.429 C 464.927 559.785, 469.103 560, 494.033 560 L 522.923 560 523.921 556.250 C 525.697 549.584, 527.286 538.188, 526.666 536.572 C 525.473 533.464, 523.441 535.162, 520.034 542.113 C 514.445 553.520, 510.190 555.688, 495.077 554.834 C 484.319 554.227, 484 553.712, 484 536.962 L 484 523.233 486.743 522.709 C 491.226 521.852, 496.735 522.596, 499.546 524.438 C 500.994 525.387, 503.098 528.376, 504.223 531.082 C 507.113 538.037, 508.315 537.337, 507.370 529.250 C 506.936 525.538, 506.639 518.372, 506.709 513.326 C 506.809 506.131, 506.523 504.031, 505.380 503.593 C 504.524 503.264, 503.714 503.748, 503.413 504.767 C 502.117 509.163, 499.279 513.563, 497 514.711 C 495.625 515.404, 492.250 515.977, 489.500 515.985 L 484.500 516 485.348 501.750 C 485.815 493.913, 486.658 486.938, 487.221 486.250 C 488.501 484.688, 499.987 484.591, 505.409 486.096 C 512.009 487.929, 516.537 491.655, 519.953 498.063 C 521.693 501.328, 523.541 504, 524.059 504 C 525.801 504, 523.801 483.468, 521.870 481.537 C 521.525 481.192, 515.675 480.726, 508.871 480.501 C 502.067 480.277, 489.525 479.794, 481 479.429 C 472.475 479.063, 465.163 479.117, 464.750 479.549 M 533.260 481.763 C 532.443 483.895, 535.072 486, 538.551 486 C 545.393 486, 545.355 485.788, 544.754 520.770 C 544.134 556.833, 544.344 556, 535.845 556 C 531.667 556, 531 556.275, 531 558 C 531 559.905, 531.667 560, 545.066 560 C 553.265 560, 559.977 560.453, 561.159 561.085 C 564.045 562.630, 568 561.413, 568 558.981 C 568 557.559, 567.326 557, 565.611 557 C 564.297 557, 562.218 556.187, 560.991 555.194 L 558.760 553.387 559.504 520.663 C 560.328 484.399, 559.780 486.882, 567.268 485.477 C 570.013 484.963, 571 484.278, 571 482.889 C 571 481.139, 570.063 480.996, 558.250 480.943 C 551.237 480.912, 542.855 480.800, 539.622 480.693 C 535.659 480.563, 533.586 480.911, 533.260 481.763 M 313.233 545.721 L 313.500 571.500 344.116 571.764 C 367.842 571.969, 374.963 571.744, 375.761 570.764 C 376.908 569.357, 379.139 528.538, 378.204 526.067 C 376.800 522.353, 375.386 522.065, 355.851 521.515 C 345.208 521.216, 331.205 520.739, 324.733 520.456 L 312.966 519.942 313.233 545.721 M 657.412 521.370 C 657.165 522.012, 657.084 533.554, 657.232 547.019 L 657.500 571.500 687.880 571.765 C 709.686 571.955, 718.651 571.705, 719.647 570.878 C 720.774 569.942, 720.985 565.281, 720.768 546.113 L 720.500 522.500 706 521.857 C 671.324 520.320, 657.866 520.185, 657.412 521.370 M 397 579 L 397 636 421.881 636 L 446.763 636 447.881 631.557 C 448.497 629.114, 449 625.514, 449 623.557 L 449 620 431.432 620 L 413.864 620 414.182 571 L 414.500 521.999 405.750 522 L 397 522 397 579 M 620.667 522.667 C 620.300 523.033, 620 545.072, 620 571.642 L 620 619.950 603.750 620.225 L 587.500 620.500 587.208 628.250 L 586.916 636 611.958 636 L 637 636 637 595.660 C 637 573.473, 637.296 547.823, 637.657 538.660 L 638.314 522 629.824 522 C 625.154 522, 621.033 522.300, 620.667 522.667 M 672 545.824 L 672 556.909 689.001 557.204 L 706.003 557.500 706.001 546.750 L 706 536 692.750 535.989 C 685.462 535.983, 677.813 535.699, 675.750 535.358 L 672 534.738 672 545.824 M 328 546.500 L 328 557 345.500 557 L 363 557 363 546.500 L 363 536 345.500 536 L 328 536 328 546.500 M 315.619 584.294 L 313 585.167 313 603.432 C 313 613.479, 313.291 625.141, 313.647 629.349 L 314.293 637 345.178 637 C 368.971 637, 376.170 636.713, 376.528 635.750 C 376.784 635.063, 377.107 623.475, 377.246 610 L 377.500 585.500 354 584.819 C 341.075 584.444, 327.741 583.976, 324.369 583.779 C 320.998 583.582, 317.060 583.813, 315.619 584.294 M 657.085 585.841 C 656.105 587.673, 656.487 620.622, 657.618 631.791 L 658.154 637.081 688.995 636.791 C 705.958 636.631, 720.056 636.275, 720.324 636 C 721.094 635.211, 721.771 591.783, 721.057 589 C 720.434 586.577, 720.078 586.480, 709.457 585.864 C 703.431 585.514, 689.405 584.948, 678.290 584.605 C 659.261 584.018, 658.022 584.091, 657.085 585.841 M 328 611 L 328 622 345 622 L 362 622 362 611 L 362 600 345 600 L 328 600 328 611 M 672 611.500 L 672 623 689 623 L 706 623 706 611.500 L 706 600 689 600 L 672 600 672 611.500 M 460.607 621.582 C 460.273 622.452, 460 626.059, 460 629.599 L 460 636.034 485.750 635.767 L 511.500 635.500 512.063 628.957 C 512.373 625.358, 512.962 621.870, 513.372 621.207 C 513.947 620.276, 508.065 620, 487.666 620 C 464.468 620, 461.139 620.195, 460.607 621.582 M 524 628 L 524 636 550 636 L 576 636 576 628 L 576 620 550 620 L 524 620 524 628 M 126.763 646.565 C 123.139 648.532, 121 652.893, 121 658.315 C 121 669.788, 135.082 675.159, 143.575 666.927 C 149.401 661.281, 149.388 654.188, 143.541 648.341 C 140.570 645.370, 139.608 645.004, 134.850 645.040 C 131.907 645.062, 128.268 645.748, 126.763 646.565 M 896.213 646.805 C 890.518 651.187, 888.630 657.467, 891.405 662.800 C 896.400 672.400, 908.346 673.732, 914.885 665.419 C 919.516 659.531, 918.063 650.838, 911.810 647.026 C 907.558 644.433, 899.444 644.318, 896.213 646.805 M 316.250 652.949 L 314 653.936 314 682.886 C 314 698.809, 314.273 712.548, 314.607 713.418 C 315.142 714.813, 318.812 715, 345.572 715 C 374.562 715, 375.976 714.913, 376.965 713.066 C 378.186 710.783, 378.389 656.161, 377.183 654.262 C 376.167 652.663, 319.677 651.446, 316.250 652.949 M 660.117 653.006 L 657.735 654.034 658.193 683.542 C 658.473 701.601, 659.046 713.446, 659.669 714.069 C 660.327 714.727, 671.173 714.983, 690.381 714.793 C 715.420 714.546, 720.237 714.265, 721.109 713 C 722.197 711.422, 721.552 663.035, 720.372 657.720 C 720.033 656.191, 718.829 654.444, 717.698 653.838 C 714.912 652.347, 663.370 651.602, 660.117 653.006 M 400.905 660.865 C 397.164 662.112, 397 663.307, 397 689.383 L 397 714.909 400.250 715.473 C 402.038 715.784, 413.775 715.433, 426.333 714.694 C 443.901 713.660, 449.373 713.022, 450.067 711.925 C 451.718 709.318, 450.434 663.101, 448.662 661.329 C 447.946 660.613, 402.972 660.176, 400.905 660.865 M 464.807 660.804 C 460.467 661.316, 459.713 665.388, 460.945 681.669 C 461.521 689.276, 461.994 699.857, 461.996 705.183 C 462 714.058, 462.171 714.919, 464.046 715.515 C 465.965 716.124, 505.147 714.327, 509.500 713.430 C 514.149 712.472, 514.151 712.461, 514.040 689.607 C 513.920 664.976, 513.606 662.327, 510.703 661.406 C 508.601 660.738, 469.692 660.229, 464.807 660.804 M 527 661.441 C 527 662.164, 526.325 663.315, 525.500 664 C 524.287 665.007, 524.001 668.141, 524.005 680.372 C 524.008 688.693, 524.305 699.954, 524.666 705.397 L 525.321 715.294 549.791 714.744 C 568.716 714.319, 574.467 713.889, 575.166 712.847 C 576.081 711.483, 575.923 662.552, 575 661.706 C 574.725 661.454, 563.813 660.996, 550.750 660.688 C 531.519 660.234, 527 660.378, 527 661.441 M 587.663 661.914 C 586.835 662.920, 586.563 670.406, 586.717 687.903 C 586.914 710.162, 587.102 712.605, 588.717 713.819 C 590.132 714.883, 595.038 715.053, 612.500 714.644 C 624.600 714.360, 635.517 713.821, 636.761 713.445 C 638.004 713.069, 639.274 711.758, 639.581 710.533 C 640.545 706.694, 639.573 663.169, 638.500 662.099 C 637.908 661.509, 627.571 660.980, 613.163 660.801 C 593.139 660.553, 588.621 660.750, 587.663 661.914 M 331 683.500 L 331 699 347 699 L 363 699 363 683.500 L 363 668 347 668 L 331 668 331 683.500 M 673.973 668.250 C 673.958 668.388, 673.845 675.363, 673.723 683.750 L 673.500 699 689.750 699 L 706 699 706 683.500 L 706 668 690 668 C 681.200 668, 673.988 668.112, 673.973 668.250 M 412.734 676.686 C 412.480 677.134, 412.488 682.450, 412.752 688.500 L 413.232 699.500 424.116 699.188 L 435 698.875 434.986 689.688 C 434.965 675.581, 435.646 676.388, 423.527 676.109 C 417.846 675.979, 412.989 676.238, 412.734 676.686 M 476.353 683.651 C 476.709 687.859, 477 693.034, 477 695.151 L 477 699 488 699 L 499 699 499 692.140 C 499 688.366, 498.714 683.191, 498.364 680.640 L 497.728 676 486.717 676 L 475.707 676 476.353 683.651 M 539 687.441 C 539 693.734, 539.337 699.044, 539.750 699.242 C 540.163 699.440, 545.112 699.425, 550.750 699.208 L 561 698.813 561 687.406 L 561 676 550 676 L 539 676 539 687.441 M 602.358 682.147 C 602.711 685.527, 603 690.702, 603 693.647 L 603 699 614.117 699 C 625.157 699, 625.229 698.985, 624.630 696.750 C 624.299 695.513, 624.021 690.337, 624.014 685.250 L 624 676 612.858 676 L 601.715 676 602.358 682.147 M 64.500 772.164 C 63.400 772.771, 61.263 774.417, 59.750 775.821 C 57.348 778.051, 57 779.122, 57 784.287 C 57 789.658, 57.306 790.506, 60.341 793.541 C 64.160 797.360, 67.548 798.495, 72.405 797.584 C 82.346 795.719, 86.345 785.280, 80.522 776.394 C 77.555 771.865, 69.092 769.631, 64.500 772.164 M 959.367 772.918 C 954.625 775.810, 953 778.788, 953 784.588 C 953 795.038, 962.862 801.006, 972.540 796.414 C 976.773 794.405, 978.524 791.690, 979.297 785.940 C 980.075 780.152, 977.700 775.908, 972.079 773.040 C 967.090 770.495, 963.398 770.460, 959.367 772.918 M 420.722 861.135 C 412.787 867.055, 413.424 879.065, 421.906 883.451 C 430.439 887.864, 441.984 881.696, 441.996 872.718 C 442.002 868.623, 439.622 863.634, 436.486 861.168 C 432.747 858.226, 424.645 858.210, 420.722 861.135 M 599.299 860.960 C 595.242 863.433, 593 867.743, 593 873.068 C 593 876.575, 593.615 877.850, 596.882 881.118 C 600.411 884.646, 601.246 885, 606.038 885 C 617.548 885, 622.865 874.960, 617.080 864.150 C 614.388 859.119, 605.061 857.446, 599.299 860.960 M 237.882 954.882 C 234.601 958.164, 234 959.417, 234 962.978 C 234 965.295, 234.787 968.541, 235.750 970.191 C 237.725 973.575, 243.630 977, 247.492 977 C 254.809 977, 261.031 970.710, 260.965 963.382 C 260.893 955.543, 255.835 951.017, 247.132 951.007 C 242.227 951.001, 241.431 951.334, 237.882 954.882 M 780.769 953.511 C 776.650 956.310, 774.285 962.014, 775.400 966.458 C 775.765 967.910, 777.589 970.763, 779.454 972.799 C 782.661 976.298, 783.182 976.500, 788.995 976.500 C 794.961 976.500, 795.264 976.371, 799.195 972.157 C 802.990 968.088, 803.208 967.534, 802.641 963.399 C 802.308 960.971, 801.286 957.840, 800.370 956.441 C 796.523 950.571, 787.156 949.171, 780.769 953.511" stroke="none" fill="#000000" fill-rule="evenodd"/>
</svg>